<svg id="Layer_1" enable-background="new 0 0 511.846 511.846" height="512" viewBox="0 0 511.846 511.846" width="512" xmlns="http://www.w3.org/2000/svg"><g><path d="m225.336 258.021-163.44-88.824c-7.27-3.949-15.855-3.786-22.969.443-7.114 4.228-11.359 11.693-11.359 19.969v206.052c0 8.337 4.502 16.076 11.75 20.197l163.443 92.917c3.603 2.048 7.543 3.071 11.484 3.071 4.016 0 8.031-1.063 11.682-3.188 7.231-4.207 11.548-11.714 11.548-20.081v-210.143c0-8.521-4.65-16.343-12.139-20.413z"/><path d="m454.621 115.6c-.011-8.7-4.817-16.591-12.54-20.594l-178.226-92.399c-6.748-3.5-14.791-3.474-21.514.065l-175.605 92.399c-7.646 4.025-12.402 11.892-12.413 20.533-.01 8.639 4.727 16.517 12.362 20.559l175.606 92.976c3.4 1.799 7.133 2.699 10.868 2.699 3.689 0 7.379-.878 10.745-2.635l178.23-92.974c7.714-4.024 12.499-11.929 12.487-20.629z"/><path d="m472.919 169.64c-7.11-4.229-15.699-4.396-22.966-.444l-163.445 88.825c-7.487 4.07-12.137 11.891-12.137 20.412v210.143c0 8.367 4.317 15.874 11.548 20.081 3.651 2.125 7.665 3.187 11.682 3.187 3.94 0 7.882-1.023 11.484-3.07l163.444-92.917c7.248-4.121 11.749-11.86 11.749-20.197v-206.051c0-8.276-4.245-15.741-11.359-19.969z"/></g></svg>