<svg height="512pt" viewBox="0 0 512 512" width="512pt" xmlns="http://www.w3.org/2000/svg"><path d="m91 436c8.277344 0 15-6.722656 15-15s-6.722656-15-15-15-15 6.722656-15 15 6.722656 15 15 15zm0 0"/><path d="m15 512h226v-241h-241v226c0 8.289062 6.710938 15 15 15zm76-136c5.285156 0 10.285156 1.082031 15 2.761719v-47.761719c0-5.199219 2.695312-10.019531 7.117188-12.757812 4.425781-2.738282 9.949218-2.960938 14.59375-.660157l60 30c7.410156 3.707031 10.414062 12.714844 6.707031 20.128907-3.722657 7.410156-12.6875 10.382812-20.128907 6.707031l-38.289062-19.144531v65.726562c0 24.8125-20.1875 45-45 45s-45-20.1875-45-45 20.1875-45 45-45zm0 0"/><path d="m106 152.976562 47.960938-31.976562-47.960938-31.976562zm0 0"/><path d="m241 0h-226c-8.289062 0-15 6.710938-15 15v226h241zm-51.679688 133.480469-90 60c-4.652343 3.097656-10.585937 3.328125-15.394531.746093-4.878906-2.605468-7.925781-7.691406-7.925781-13.226562v-120c0-5.535156 3.046875-10.621094 7.925781-13.226562 4.878907-2.59375 10.796875-2.316407 15.394531.746093l90 60c4.175782 2.78125 6.679688 7.46875 6.679688 12.480469 0 5.007812-2.503906 9.695312-6.679688 12.480469zm0 0"/><path d="m271 399.789062 50.394531-49.394531c5.859375-5.859375 15.351563-5.859375 21.210938 0l19.394531 19.394531 49.394531-49.394531c5.859375-5.859375 15.351563-5.859375 21.210938 0l79.394531 79.394531v-128.789062h-241zm0 0"/><path d="m383.210938 391 19.394531 19.394531c5.859375 5.859375 5.859375 15.351563 0 21.210938s-15.351563 5.859375-21.210938 0l-49.394531-49.394531-61 60v69.789062h226c8.289062 0 15-6.710938 15-15v-54.789062l-90-90zm0 0"/><path d="m347 106h30v30h-30zm0 0"/><path d="m407 141.726562 30 15v-71.453124l-30 15zm0 0"/><path d="m497 0h-226v241h241v-226c0-8.289062-6.710938-15-15-15zm-30 181c0 5.199219-2.695312 10.019531-7.117188 12.757812-4.332031 2.691407-9.847656 3.015626-14.59375.660157l-56.835937-28.417969h-56.453125c-8.289062 0-15-6.710938-15-15v-60c0-8.289062 6.710938-15 15-15h56.453125l56.835937-28.417969c4.644532-2.328125 10.183594-2.09375 14.59375.660157 4.421876 2.738281 7.117188 7.558593 7.117188 12.757812zm0 0"/></svg>